<?xml version="1.0" standalone="no"?>
<!DOCTYPE svg PUBLIC "-//W3C//DTD SVG 20010904//EN"
 "http://www.w3.org/TR/2001/REC-SVG-20010904/DTD/svg10.dtd">
<svg version="1.0" xmlns="http://www.w3.org/2000/svg"
 width="1300.000000pt" height="1300.000000pt" viewBox="0 0 1300.000000 1300.000000"
 preserveAspectRatio="xMidYMid meet">
<metadata>
Created by potrace 1.14, written by Peter Selinger 2001-2017
</metadata>
<g transform="translate(0.000000,1300.000000) scale(0.100000,-0.100000)"
fill="#000000" stroke="none">
<path d="M1208 10055 c-1 -1 -21 -5 -43 -9 -22 -3 -51 -8 -65 -11 -14 -3 -37
-7 -52 -10 -15 -3 -40 -10 -55 -16 -15 -6 -28 -10 -28 -9 0 2 -24 -6 -80 -25
-307 -109 -582 -354 -736 -655 -24 -47 -44 -89 -46 -95 -1 -5 -15 -48 -32 -95
-29 -82 -36 -110 -46 -175 -3 -16 -8 -41 -12 -55 -10 -32 -15 -4429 -5 -4444
3 -6 7 -18 7 -26 7 -139 105 -394 212 -552 18 -26 33 -50 33 -53 0 -17 208
-227 275 -277 101 -76 222 -143 340 -188 77 -30 105 -39 105 -35 0 3 9 1 19
-5 11 -5 37 -12 58 -16 21 -3 45 -7 53 -9 99 -27 371 -27 509 0 48 9 179 46
216 62 123 50 276 133 340 185 103 84 195 172 195 187 0 6 7 11 15 11 8 0 15
4 15 9 0 4 18 31 40 59 22 27 40 53 40 58 0 4 9 17 19 28 24 26 121 219 121
241 0 8 4 15 8 15 4 0 8 8 9 18 1 9 7 31 14 47 7 17 13 35 15 40 7 29 16 73
20 98 2 16 6 32 9 36 2 5 8 42 12 82 9 97 9 4319 0 4384 -4 28 -9 64 -11 80
-14 103 -86 314 -143 414 -47 84 -105 171 -114 171 -4 0 -10 9 -14 19 -16 52
-321 321 -363 321 -6 0 -12 4 -14 9 -4 11 -101 60 -188 95 -61 25 -210 67
-290 81 -36 7 -356 16 -362 10z"/>
<path d="M6335 9898 c-106 -17 -207 -40 -257 -59 -29 -11 -60 -22 -69 -24 -37
-8 -211 -100 -243 -127 -11 -10 -23 -18 -28 -18 -9 0 -13 -4 -108 -83 -65 -54
-158 -150 -195 -202 -11 -15 -30 -40 -42 -55 -13 -15 -23 -31 -23 -35 0 -4 -8
-19 -19 -33 -29 -43 -71 -122 -71 -135 0 -7 -5 -18 -11 -24 -22 -22 -84 -216
-95 -298 -3 -22 -10 -58 -15 -80 -7 -32 -7 -4358 0 -4429 1 -11 9 -47 17 -80
8 -34 16 -70 18 -81 6 -37 57 -178 88 -244 92 -195 284 -418 462 -536 87 -57
250 -143 284 -148 9 -1 22 -5 27 -9 8 -5 33 -13 110 -34 6 -2 24 -6 40 -9 17
-3 35 -7 42 -10 78 -27 396 -27 528 1 17 4 36 7 43 7 6 0 12 4 12 9 0 5 4 7 9
4 17 -11 236 70 301 110 14 8 33 18 43 21 9 3 17 9 17 14 0 5 6 9 14 9 7 0 31
13 52 30 22 16 59 44 83 62 68 51 199 186 249 258 26 36 49 67 52 70 3 3 12
19 20 35 8 17 18 32 21 35 19 16 103 222 126 305 23 89 30 125 40 225 9 84 9
4251 0 4350 -4 41 -9 86 -12 100 -30 133 -41 175 -49 189 -4 6 -9 20 -11 31
-4 23 -51 130 -76 175 -9 17 -25 46 -35 65 -18 33 -25 43 -51 74 -7 8 -13 18
-13 21 0 32 -301 325 -334 325 -3 0 -15 8 -25 17 -44 37 -301 163 -301 146 0
-3 -6 -1 -12 5 -14 11 -158 47 -228 57 -71 10 -320 13 -375 3z"/>
<path d="M11465 9730 c-22 -4 -59 -10 -83 -14 -24 -3 -48 -8 -53 -11 -5 -4
-22 -9 -37 -12 -36 -7 -44 -9 -62 -16 -8 -3 -42 -15 -75 -27 -71 -24 -255
-117 -275 -140 -3 -3 -25 -19 -50 -35 -71 -47 -250 -232 -309 -318 -54 -80
-151 -265 -151 -290 0 -7 -4 -17 -9 -22 -8 -10 -48 -152 -56 -205 -2 -14 -7
-36 -10 -50 -3 -14 -7 -70 -10 -124 -3 -54 -7 -101 -9 -103 -3 -3 -1 -15 4
-28 5 -13 6 -25 3 -28 -7 -7 -7 -153 0 -165 3 -4 2 -14 -3 -21 -4 -8 -4 -27 0
-42 5 -16 5 -31 0 -34 -6 -3 -5 -16 0 -29 5 -13 6 -26 3 -29 -7 -7 -7 -153 0
-165 3 -4 2 -14 -3 -21 -4 -8 -4 -27 0 -42 5 -16 5 -31 0 -34 -6 -3 -5 -16 0
-29 5 -13 6 -26 3 -29 -7 -7 -7 -153 0 -165 3 -4 2 -14 -3 -21 -4 -8 -4 -27 0
-42 5 -16 5 -31 0 -34 -6 -3 -5 -16 0 -29 5 -13 6 -26 3 -29 -7 -7 -7 -153 0
-165 3 -4 2 -14 -3 -21 -4 -8 -4 -27 0 -42 5 -16 5 -31 0 -34 -6 -3 -5 -16 0
-29 5 -13 6 -26 3 -29 -7 -7 -7 -153 0 -165 3 -4 2 -14 -3 -21 -4 -8 -4 -27 0
-42 5 -16 5 -31 0 -34 -6 -3 -5 -16 0 -29 5 -13 6 -26 3 -29 -7 -7 -7 -153 0
-165 3 -4 2 -14 -3 -21 -4 -8 -4 -27 0 -42 5 -16 5 -31 0 -34 -6 -3 -5 -16 0
-29 5 -13 6 -26 3 -29 -7 -7 -7 -153 0 -165 3 -4 2 -14 -3 -21 -4 -8 -4 -27 0
-42 5 -16 5 -31 0 -34 -6 -3 -5 -16 0 -29 5 -13 6 -26 3 -29 -7 -7 -7 -153 0
-165 3 -4 2 -14 -3 -21 -4 -8 -4 -27 0 -42 5 -16 5 -31 0 -34 -6 -3 -5 -16 0
-29 5 -13 6 -26 3 -29 -7 -7 -7 -153 0 -165 3 -4 2 -14 -3 -21 -4 -8 -4 -27 0
-42 5 -16 5 -31 0 -34 -6 -3 -5 -16 0 -29 5 -13 6 -26 3 -29 -7 -7 -7 -153 0
-165 3 -4 2 -14 -3 -21 -4 -8 -4 -27 0 -42 5 -16 5 -31 0 -34 -6 -3 -5 -16 0
-29 5 -13 6 -26 3 -29 -7 -7 -7 -153 0 -165 3 -4 2 -14 -3 -21 -4 -8 -4 -27 0
-42 5 -16 5 -31 0 -34 -6 -3 -5 -16 0 -29 5 -13 6 -26 3 -29 -7 -7 -7 -153 0
-165 3 -4 2 -14 -3 -21 -4 -8 -4 -27 0 -42 5 -16 5 -31 0 -34 -6 -3 -5 -16 0
-29 5 -13 6 -26 3 -29 -9 -10 0 -306 12 -367 15 -78 25 -121 40 -175 19 -72
91 -244 111 -266 8 -8 14 -20 14 -25 0 -12 71 -118 82 -122 4 -2 8 -8 8 -13 0
-31 217 -241 321 -311 75 -50 289 -163 289 -152 0 2 17 -3 38 -11 43 -17 144
-44 185 -50 15 -2 47 -7 70 -12 23 -4 107 -7 187 -7 145 1 181 4 308 30 117
23 400 147 445 195 10 10 24 19 32 19 7 0 15 3 17 8 2 4 26 25 53 47 108 86
222 217 301 345 34 56 104 193 104 205 0 2 5 16 12 32 6 15 12 34 14 41 1 8 6
21 10 30 4 9 8 24 9 32 2 8 6 26 10 40 6 26 11 47 20 90 3 14 8 54 12 90 9 83
9 4274 0 4360 -18 176 -78 374 -157 515 -27 49 -114 177 -143 213 -78 93 -269
262 -297 262 -6 0 -10 3 -10 8 0 7 -10 13 -66 42 -16 8 -31 17 -34 21 -17 20
-263 111 -337 125 -48 8 -67 12 -95 20 -36 9 -338 12 -383 4z"/>
<path d="M3809 8856 c-2 -2 -24 -6 -49 -9 -206 -26 -423 -128 -595 -278 -54
-48 -195 -209 -195 -223 0 -3 -15 -29 -33 -58 -18 -29 -38 -64 -44 -78 -57
-127 -82 -209 -101 -330 -10 -63 -9 -2404 1 -2465 5 -27 10 -61 12 -73 12 -78
113 -321 151 -363 8 -8 14 -21 14 -27 0 -7 4 -12 9 -12 5 0 12 -8 15 -17 3
-10 22 -36 42 -58 20 -22 46 -51 58 -65 41 -50 172 -152 254 -201 45 -27 85
-49 87 -49 3 0 24 -8 48 -19 58 -26 98 -40 127 -45 14 -2 37 -9 52 -15 14 -5
35 -10 45 -10 10 0 36 -3 58 -8 48 -9 284 -10 340 -1 194 32 391 118 540 237
44 36 141 128 166 158 78 95 168 255 207 369 20 59 26 79 37 142 3 15 8 38 11
51 3 13 7 58 10 99 2 42 6 77 8 80 3 2 1 15 -4 28 -7 16 -6 24 1 24 8 0 8 4 0
14 -8 9 -8 16 -2 20 5 4 6 18 2 34 -4 15 -5 38 -1 52 3 13 3 46 0 72 -4 28 -2
48 3 48 5 0 4 6 -2 14 -8 9 -8 16 -2 20 5 4 6 18 2 34 -4 15 -5 38 -1 52 3 13
3 46 0 72 -4 28 -2 48 3 48 5 0 4 6 -2 14 -8 9 -8 16 -2 20 5 4 6 18 2 34 -4
15 -5 38 -1 52 3 13 3 46 0 72 -4 28 -2 48 3 48 5 0 4 6 -2 14 -8 9 -8 16 -2
20 5 4 6 18 2 34 -4 15 -5 38 -1 52 3 13 3 46 0 72 -4 28 -2 48 3 48 5 0 4 6
-2 14 -8 9 -8 16 -2 20 5 4 6 18 2 34 -4 15 -5 38 -1 52 3 13 3 46 0 72 -4 28
-2 48 3 48 5 0 4 6 -2 14 -8 9 -8 16 -2 20 5 4 6 18 2 34 -4 15 -5 38 -1 52 3
13 3 46 0 72 -4 28 -2 48 3 48 5 0 4 6 -2 14 -8 9 -8 16 -2 20 5 4 6 18 2 34
-4 15 -5 38 -1 52 3 13 3 46 0 72 -4 28 -2 48 3 48 5 0 4 6 -2 14 -8 9 -8 16
-2 20 5 4 6 18 2 34 -4 15 -5 38 -1 52 3 13 3 46 0 72 -4 28 -2 48 3 48 5 0 4
6 -2 14 -8 9 -8 16 -2 20 6 4 6 18 1 35 -4 16 -6 32 -3 35 8 8 1 151 -12 231
-13 83 -36 169 -54 203 -6 12 -9 22 -7 22 6 0 -94 202 -103 210 -4 3 -19 25
-35 49 -40 63 -200 221 -277 274 -73 51 -225 130 -274 143 -5 1 -46 12 -89 24
-44 12 -91 24 -105 26 -35 6 -307 14 -312 10z"/>
<path d="M8938 8855 c-2 -1 -22 -5 -45 -9 -50 -6 -156 -32 -198 -48 -87 -32
-187 -79 -196 -91 -3 -5 -8 -7 -10 -6 -3 3 -81 -47 -114 -73 -69 -54 -124
-106 -174 -164 -48 -56 -121 -160 -121 -172 0 -6 -3 -12 -8 -14 -19 -8 -92
-186 -117 -288 -2 -8 -4 -15 -5 -15 -1 0 -3 -9 -6 -20 -11 -53 -15 -97 -19
-180 -2 -49 -5 -92 -5 -95 -5 -16 -1 -101 5 -110 3 -5 1 -10 -5 -10 -6 0 -8
-5 -5 -10 6 -9 10 -86 5 -100 -4 -14 -4 -120 0 -120 6 0 2 -111 -4 -118 -3 -2
-1 -14 4 -26 4 -13 5 -29 0 -36 -4 -7 -4 -24 0 -39 4 -14 4 -35 0 -46 -4 -11
-4 -29 0 -41 5 -11 5 -26 0 -34 -4 -7 -4 -24 -1 -39 4 -14 4 -43 1 -63 -4 -21
-5 -38 -1 -38 5 0 6 -114 1 -130 -5 -15 -1 -101 5 -110 3 -5 1 -10 -5 -10 -6
0 -8 -5 -5 -10 6 -9 10 -86 5 -100 -4 -14 -4 -120 0 -120 6 0 2 -111 -4 -118
-3 -2 -1 -14 4 -26 4 -13 5 -29 0 -36 -4 -7 -4 -24 0 -39 4 -14 4 -35 0 -46
-4 -11 -4 -29 0 -41 5 -11 5 -26 0 -34 -4 -7 -4 -24 -1 -39 4 -14 4 -43 1 -63
-4 -21 -5 -38 -1 -38 5 0 6 -114 1 -130 -5 -15 -1 -101 5 -110 3 -5 1 -10 -5
-10 -6 0 -8 -5 -5 -10 4 -6 8 -50 10 -98 13 -340 172 -642 455 -862 47 -37 47
-37 133 -86 65 -36 213 -97 236 -97 9 0 22 -4 29 -10 7 -5 15 -7 19 -4 3 4 14
2 25 -4 30 -16 80 -21 238 -22 146 -1 196 3 273 24 23 6 49 13 57 14 37 8 136
47 190 74 238 121 403 288 526 533 24 48 44 90 44 93 0 3 2 10 5 17 25 82 31
106 41 163 3 17 10 50 15 75 10 51 7 2433 -3 2468 -4 12 -9 25 -11 30 -3 4 -8
24 -11 44 -14 87 -85 253 -147 346 -16 24 -29 45 -29 47 0 24 -189 212 -270
269 -203 144 -396 207 -652 211 -80 2 -148 2 -150 0z"/>
</g>
</svg>
